<?xml version="1.0" standalone="no"?>
<!DOCTYPE svg PUBLIC "-//W3C//DTD SVG 20010904//EN"
 "http://www.w3.org/TR/2001/REC-SVG-20010904/DTD/svg10.dtd">
<svg version="1.0" xmlns="http://www.w3.org/2000/svg"
 width="1536.000000pt" height="1024.000000pt" viewBox="0 0 1536.000000 1024.000000"
 preserveAspectRatio="xMidYMid meet">

<g transform="translate(0.000000,1024.000000) scale(0.100000,-0.100000)"
fill="#000000" stroke="none">
<path d="M2748 7073 c-2 -5 -2 -734 0 -1620 l2 -1613 305 0 305 0 0 1115 c0
613 1 1115 3 1115 1 0 200 -195 441 -432 241 -238 446 -437 454 -442 13 -8
105 80 464 444 l448 453 0 -1127 0 -1126 305 0 305 0 0 515 0 515 73 -55 c139
-107 366 -201 587 -242 86 -16 167 -18 865 -18 l770 0 47 22 c61 28 134 96
160 148 29 56 35 158 14 223 -23 69 -92 144 -162 177 l-56 26 -696 4 c-574 4
-713 7 -787 20 -329 57 -580 239 -717 520 -84 174 -88 203 -88 808 0 284 -3
531 -7 547 l-5 30 -304 0 -304 0 0 -51 0 -52 -107 -111 c-59 -61 -193 -199
-298 -306 -105 -107 -261 -268 -347 -357 l-156 -161 -149 151 c-189 192 -674
697 -730 759 -36 39 -43 55 -43 88 l0 40 -294 0 c-162 0 -296 -3 -298 -7z"/>
<path d="M8998 6585 l-3 -495 -60 41 c-75 51 -228 129 -320 162 -111 39 -291
76 -431 88 -79 6 -393 9 -809 7 l-680 -3 -50 -23 c-106 -49 -165 -134 -173
-248 -8 -133 55 -243 171 -295 l52 -24 720 -6 c679 -6 725 -7 812 -27 352 -79
647 -355 744 -698 23 -77 23 -92 27 -651 l3 -573 897 0 c1586 -1 1494 -2 1605
21 121 24 206 56 295 109 219 130 372 336 429 576 13 59 18 115 17 224 -1 167
-20 257 -79 377 -38 77 -132 209 -183 257 l-31 29 57 61 c105 113 175 237 213
381 32 123 30 345 -4 478 -45 170 -134 322 -264 450 -134 132 -259 202 -453
254 -60 16 -163 17 -1282 20 l-1218 4 -2 -496z m2287 -165 c137 -7 186 -24
255 -86 62 -56 92 -123 98 -215 8 -131 -38 -234 -133 -299 -88 -61 -78 -60
-987 -60 l-828 0 0 336 0 335 738 -2 c405 -1 791 -5 857 -9z m165 -1311 c114
-54 180 -149 188 -274 9 -146 -52 -256 -175 -317 l-68 -33 -852 -3 -853 -2 0
330 0 331 853 -3 852 -3 55 -26z"/>
</g>
</svg>
